HIERARCHY
ROOT hip
{
	OFFSET 0.000000 0.000000 0.000000 
	CHANNELS 6 Xposition Yposition Zposition Xrotation Zrotation Yrotation
	JOINT abdomen
	{
		OFFSET 0.000000 3.402643 0.000000 
		CHANNELS 3 Xrotation Zrotation Yrotation
		JOINT chest
		{
			OFFSET 0.000000 8.438565 -0.680529 
			CHANNELS 3 Xrotation Zrotation Yrotation
			JOINT neck
			{
				OFFSET 0.000000 10.207942 -0.272212 
				CHANNELS 3 Xrotation Zrotation Yrotation
				JOINT head
				{
					OFFSET 0.000000 3.130431 0.000000 
					CHANNELS 3 Xrotation Zrotation Yrotation
					End Site
					{
						OFFSET 0.000000 3.130435 0.000000 
					}
				}
			}
			JOINT lCollar
			{
				OFFSET 3.470700 6.669187 -0.816635 
				CHANNELS 3 Yrotation Zrotation Xrotation
				JOINT lShldr
				{
					OFFSET 3.198488 0.000000 0.000000 
					CHANNELS 3 Zrotation Yrotation Xrotation
					JOINT lForeArm
					{
						OFFSET 10.139888 0.000000 0.000000 
						CHANNELS 3 Yrotation Zrotation Xrotation
						JOINT lHand
						{
							OFFSET 8.370511 0.000000 0.000000 
							CHANNELS 3 Zrotation Yrotation Xrotation
							End Site
							{
								OFFSET 4.083176 0.000000 0.000000 
							}
						}
					}
				}
			}
			JOINT rCollar
			{
				OFFSET -3.470700 6.669187 -0.816635 
				CHANNELS 3 Yrotation Zrotation Xrotation
				JOINT rShldr
				{
					OFFSET -3.198488 0.000000 0.000000 
					CHANNELS 3 Zrotation Yrotation Xrotation
					JOINT rForeArm
					{
						OFFSET -10.139888 0.000000 0.000000 
						CHANNELS 3 Yrotation Zrotation Xrotation
						JOINT rHand
						{
							OFFSET -8.370511 0.000000 0.000000 
							CHANNELS 3 Zrotation Yrotation Xrotation
							End Site
							{
								OFFSET -4.083176 0.000000 0.000000 
							}
						}
					}
				}
			}
		}
	}
	JOINT lThigh
	{
		OFFSET 5.308129 -1.633274 1.361059 
		CHANNELS 3 Xrotation Zrotation Yrotation
		JOINT lShin
		{
			OFFSET -2.041588 -20.007561 0.000000 
			CHANNELS 3 Xrotation Zrotation Yrotation
			JOINT lFoot
			{
				OFFSET 0.000000 -19.190928 -1.224953 
				CHANNELS 3 Xrotation Yrotation Zrotation
				End Site
				{
					OFFSET 0.000000 -2.449906 4.627600 
				}
			}
		}
	}
	JOINT rThigh
	{
		OFFSET -5.308129 -1.633274 1.361059 
		CHANNELS 3 Xrotation Zrotation Yrotation
		JOINT rShin
		{
			OFFSET 2.041588 -20.007561 0.000000 
			CHANNELS 3 Xrotation Zrotation Yrotation
			JOINT rFoot
			{
				OFFSET 0.000000 -19.190928 -1.224953 
				CHANNELS 3 Xrotation Yrotation Zrotation
				End Site
				{
					OFFSET 0.000000 -2.449906 4.627600 
				}
			}
		}
	}
}
MOTION
Frames: 10
Frame Time: 0.033333
-0.027228 45.851727 0.362397 -7.102289 1.569898 84.335747 0.000000 0.000000 0.000000 11.639239 5.644015 7.381380 18.585051 4.049832 0.224391 -21.826418 -0.218931 -0.799136 -10.135285 16.369713 25.000000 -94.370796 0.986083 0.825013 -55.379044 11.298594 72.179062 -20.226767 -11.265720 -53.840744 -16.785490 -10.514288 21.204092 73.257484 9.135675 72.699371 37.959911 -49.008644 55.547955 43.191017 12.373811 -79.697510 8.466207 11.025887 21.046631 22.552160 8.152121 1.157489 -8.826855 -12.555735 -4.503235 10.878584 4.433496 2.264795 16.588785 -2.414384 -0.033822 0.875638 -7.320933 10.689312 
0.118325 45.906925 0.664375 -7.083878 3.537314 84.668358 0.000000 0.000000 0.000000 13.390130 4.921765 7.127774 18.865469 4.642451 0.265523 -22.168163 -0.192988 -0.568680 -10.335041 15.419777 25.000000 -92.981369 1.271858 0.067641 -55.552738 11.139340 70.698936 -20.374926 -10.430420 -54.236324 -16.509880 -9.180038 21.681675 72.476768 9.205973 72.210976 37.957695 -48.781170 56.311501 43.012283 12.539534 -79.643860 8.130703 10.934703 21.010733 26.378630 10.073940 1.347313 -9.652942 -13.094107 -4.958040 16.132097 4.287140 2.153133 11.303036 -1.973215 -0.372578 2.701364 -6.836789 12.407149 
0.188370 45.766266 0.857493 -6.747911 4.335111 85.513687 0.000000 0.000000 0.000000 13.875220 4.162459 6.925744 19.147684 5.496864 0.322052 -22.178925 -0.478223 -0.935839 -11.243047 15.010053 25.000000 -92.441368 1.123262 -0.235912 -55.429741 11.359999 69.496887 -20.750177 -9.866576 -54.440044 -16.860029 -8.056369 21.968065 71.672806 9.167778 71.726906 38.218639 -48.644840 57.268028 42.714115 12.851441 -79.553314 5.516129 10.761046 20.959265 31.549341 12.095712 1.526314 -11.014985 -14.043161 -4.751510 19.096004 3.846525 2.023546 7.772339 -1.396021 -0.544901 3.468072 -7.154271 13.215461 
0.218462 45.405941 1.067748 -6.885016 4.333876 86.147148 0.000000 0.000000 0.000000 13.588525 4.006117 6.905317 19.238348 6.095209 0.375686 -21.827953 -0.589426 -1.245576 -11.720753 15.643702 25.000000 -92.938393 0.804646 0.029692 -55.199505 11.572865 69.210068 -21.293001 -9.581669 -54.464161 -17.263306 -7.668849 22.030836 71.688553 9.051726 71.757996 38.203682 -48.821136 58.349636 42.603683 13.378533 -79.425552 2.107599 11.237431 21.117464 36.755077 14.076984 1.672396 -12.553652 -14.905787 -4.585484 20.917072 4.169404 2.117069 4.837920 -1.199552 -0.743699 4.124407 -7.416965 13.895071 
0.329841 45.061535 1.362608 -7.680538 5.381263 85.428185 0.000000 0.000000 0.000000 14.476576 4.369035 6.947524 19.327572 5.584791 0.327712 -21.553604 0.413751 -0.318510 -10.164785 16.404039 25.000000 -93.240524 1.229359 0.215093 -54.945137 10.758194 69.235840 -21.641054 -8.909040 -54.785885 -16.328070 -7.392553 22.268362 72.427437 9.592792 72.094299 36.034058 -49.125240 58.014809 42.662167 13.827890 -79.342506 2.477978 12.115939 21.474184 38.741486 15.174621 1.814402 -13.218582 -14.925869 -5.254922 23.821604 5.262227 2.414686 2.141843 -1.577238 -1.004678 5.103660 -6.335384 15.233596 
0.279994 44.735474 1.488165 -7.705045 4.064655 85.457100 0.000000 0.000000 0.000000 12.918556 4.340847 7.010342 19.278868 5.597209 0.335604 -21.585794 0.861014 -0.149257 -9.786341 17.634064 25.000000 -94.456680 0.962160 0.874205 -54.141548 10.715948 69.120209 -21.376442 -9.154477 -54.740406 -16.408098 -7.990089 22.068871 73.496513 9.578694 72.743828 34.212921 -49.016834 55.546265 42.882507 12.968981 -79.537247 0.075996 12.142807 21.428755 40.275410 16.222530 1.959663 -13.379225 -14.815150 -6.161519 23.199589 5.721832 2.559095 0.857519 -1.979097 -1.188355 5.976140 -6.106035 16.841818 
0.293641 44.624008 1.574254 -7.920040 4.023877 84.968040 0.000000 0.000000 0.000000 12.793760 4.485889 7.053366 19.411079 5.156740 0.296499 -21.552574 1.376452 0.431125 -8.881133 17.610048 25.000000 -94.511574 1.282071 0.912887 -53.695507 10.294146 68.945900 -21.425655 -8.862956 -54.892033 -15.828691 -8.314729 22.062567 74.273071 9.956666 73.132301 31.341177 -48.491600 51.455444 43.528637 11.807831 -79.921570 -0.136978 12.616379 21.620611 41.087494 16.203505 1.911534 -13.595193 -14.613859 -7.322000 23.764292 6.277986 2.715764 -0.098036 -2.588650 -1.382934 6.460186 -5.443748 17.394938 
0.295259 44.708420 1.578880 -8.566849 4.084927 84.668549 0.000000 0.000000 0.000000 12.925953 5.235756 7.225529 19.517658 4.808492 0.276416 -21.403652 1.192448 0.473683 -8.481720 17.234398 25.000000 -94.569321 1.660518 0.960984 -53.707630 10.131895 70.171005 -20.979313 -9.229323 -54.770790 -15.534224 -8.486284 22.064934 74.519043 10.263723 73.208290 28.453203 -47.522324 46.117088 43.915722 10.021007 -80.426750 0.487806 13.545244 22.013540 40.518951 15.564305 1.792091 -13.518647 -14.523629 -8.416708 23.864843 7.176796 2.996077 0.038219 -3.171622 -1.517490 5.687016 -5.273562 15.666810 
0.268645 44.914104 1.437354 -8.788442 3.744703 85.027565 0.000000 0.000000 0.000000 12.614136 5.785638 7.376616 19.499987 4.870616 0.278129 -21.027405 0.636650 -0.108181 -9.158184 16.641003 25.000000 -94.636009 1.833154 1.009570 -53.949894 10.237885 71.586159 -20.731127 -9.846395 -54.470856 -15.977281 -8.580298 21.959860 74.280945 10.356583 73.043625 26.754623 -46.672867 42.406288 44.093643 9.357002 -80.634926 0.877436 13.845136 22.151361 39.056885 14.700786 1.675359 -13.362704 -14.576185 -7.732691 22.792677 7.363080 3.050007 1.256340 -3.205392 -1.445744 5.045720 -5.795988 15.397616 
0.264770 45.215111 1.178274 -8.336388 3.546213 85.389305 0.000000 0.000000 0.000000 12.427047 5.761183 7.380926 19.254007 4.845759 0.272531 -20.859598 0.212567 -0.579067 -9.774663 16.373230 25.000000 -95.039810 1.969069 1.235395 -54.214359 10.249711 73.354805 -20.577093 -10.583835 -54.064259 -16.557850 -9.214019 21.659012 74.278946 10.210491 73.087013 26.322784 -46.355133 40.782909 44.202179 9.454671 -80.655144 2.994927 12.925215 21.818747 34.979725 13.303523 1.574977 -12.410973 -14.354650 -6.149113 21.450815 6.580644 2.807721 3.034950 -2.947220 -1.248960 4.561066 -6.461949 15.809250 
